<svg width="316" height="183" viewBox="0 0 316 183" fill="none" xmlns="http://www.w3.org/2000/svg">
<path d="M103.724 65.1983C105.515 67.3296 107.902 68.5185 110.385 68.5156C111.662 68.503 112.924 68.17 114.094 67.5365C115.264 66.903 116.319 65.9822 117.194 64.8296L121.446 59.4113C123.033 59.8615 124.686 59.7998 126.248 59.2319C127.81 58.664 129.228 57.6091 130.367 56.1678L139.525 44.5203L145.948 36.4849L140.803 36.1901L127.72 52.8504C126.955 53.7927 125.99 54.4456 124.937 54.7328C123.884 55.02 122.787 54.9296 121.773 54.4722C121.416 54.3033 121.026 54.2656 120.652 54.3637C120.278 54.4617 119.934 54.6913 119.662 55.0251L114.607 61.5123C114.082 62.1699 113.457 62.6918 112.768 63.048C112.079 63.4042 111.34 63.5876 110.593 63.5876C109.847 63.5876 109.107 63.4042 108.418 63.048C107.729 62.6918 107.104 62.1699 106.579 61.5123C106.052 60.9034 105.636 60.1619 105.36 59.3377C105.208 58.8981 104.955 58.5238 104.632 58.2616C104.31 57.9994 103.932 57.8609 103.546 57.8633H103.07C102.083 57.8621 101.11 57.5708 100.232 57.0134C99.353 56.4559 98.5934 55.6483 98.0153 54.6566C97.7523 54.2508 97.5325 53.8048 97.3612 53.3296C95.7789 52.9129 94.2688 52.1517 92.901 51.0812C93.0811 54.0653 94.1092 56.8733 95.8025 59.006C97.4958 61.1388 99.7444 62.4579 102.148 62.7288C102.593 63.6262 103.122 64.4551 103.724 65.1983V65.1983Z" fill="white"/>
<path d="M166.256 0.0681024H164.324C163.076 -0.0227008 161.825 -0.0227008 160.577 0.0681024C152.995 0.842146 129.742 5.78119 128.761 5.96549C127.78 6.37094 123.528 8.84052 95.6366 24.9849C93.5774 26.2731 91.9286 28.3839 90.9562 30.9766C89.9838 33.5693 89.7446 36.4926 90.2773 39.2745C90.81 42.0563 92.0835 44.5344 93.8921 46.3089C95.7007 48.0833 97.9389 49.0503 100.245 49.0539C101.815 49.0579 103.364 48.6034 104.765 47.7271L131.318 31.3616L160.488 31.6933L171.728 36.6693L150.913 40.3552C148.342 40.7764 145.995 42.389 144.345 44.8686C142.694 47.3481 141.863 50.5106 142.017 53.7196C142.172 56.9286 143.301 59.946 145.178 62.1646C147.054 64.3832 149.539 65.6383 152.132 65.6775H153.352L191.471 59.3008C192.841 59.1094 194.227 59.1966 195.575 59.5589L208.212 62.9867C213.253 64.3487 218.45 64.5736 223.555 63.6503L227.272 62.9867V58.0845L222.96 58.8585C218.381 59.6809 213.72 59.4937 209.193 58.3057L196.586 54.8778C194.799 54.3949 192.96 54.2829 191.144 54.546L152.995 60.9595C152.168 61.0665 151.333 60.97 150.537 60.6755C149.741 60.381 149 59.8944 148.356 59.2436C147.712 58.5927 147.178 57.7905 146.785 56.8832C146.393 55.9758 146.148 54.9811 146.067 53.9563C145.971 52.9416 146.039 51.9135 146.266 50.9314C146.493 49.9494 146.875 49.0329 147.389 48.2345C147.903 47.4361 148.54 46.7718 149.262 46.2798C149.984 45.7879 150.778 45.478 151.597 45.368L180.202 40.1709C180.633 40.0988 181.032 39.8486 181.334 39.4606C181.636 39.0727 181.824 38.5697 181.867 38.0331C181.914 37.4931 181.813 36.9493 181.581 36.4884C181.349 36.0275 181 35.676 180.588 35.4898L161.618 26.9016C161.401 26.8665 161.181 26.8665 160.964 26.9016L130.991 26.5699C130.682 26.5763 130.378 26.6641 130.099 26.8278L103.13 43.4514C101.614 44.3398 99.8772 44.4509 98.296 43.7607C96.7148 43.0706 95.4172 41.6348 94.6851 39.7655C93.9575 37.9346 93.8396 35.8225 94.357 33.8848C94.8743 31.9472 95.9854 30.3393 97.4505 29.408L129.772 10.7573C132.299 10.2412 153.976 5.67066 161.023 4.97033C162.102 4.87899 163.185 4.87899 164.264 4.97033H166.286C173.274 5.15463 197.597 6.40782 216.657 14.6274H216.984L227.688 16.9127V11.9736L217.757 9.87256C198.727 1.72667 175.474 0.289222 166.346 0.0312072L166.256 0.0681024Z" fill="white"/>
<path d="M312.075 67.1884H256.412V7.51327H312.075V67.1884ZM314.037 2.64783H254.568C254.048 2.64783 253.549 2.9042 253.18 3.36042C252.812 3.81664 252.606 4.43536 252.606 5.08055V69.6211C252.606 70.2663 252.812 70.885 253.18 71.3412C253.549 71.7975 254.048 72.0538 254.568 72.0538H314.037C314.556 72.0443 315.05 71.7849 315.417 71.3308C315.783 70.8766 315.992 70.2633 316 69.6211V5.08055C315.992 4.43832 315.783 3.82506 315.417 3.37088C315.05 2.91671 314.556 2.65734 314.037 2.64783V2.64783Z" fill="white"/>
<path d="M233.486 6.22314C232.974 6.22314 232.482 6.47563 232.12 6.92494C231.757 7.37425 231.554 7.98355 231.554 8.61897L231.256 66.0088C231.251 66.3245 231.298 66.6381 231.395 66.93C231.493 67.2218 231.638 67.4854 231.821 67.7043C231.996 67.9367 232.208 68.1222 232.443 68.249C232.679 68.3758 232.932 68.4413 233.189 68.4415H248.562V63.5761H235.181L235.449 11.0517H248.562V6.33372H233.516L233.486 6.22314Z" fill="white"/>
<path d="M103.695 177.471C105.998 173.807 108.989 170.897 112.407 168.994C112.796 168.775 113.126 168.422 113.357 167.978C113.589 167.534 113.714 167.016 113.715 166.487V159.115H201.522V166.487C201.521 167.012 201.64 167.527 201.867 167.971C202.093 168.415 202.417 168.769 202.8 168.994C206.227 170.878 209.221 173.792 211.512 177.471H103.695ZM205.982 164.792V156.388C205.974 155.657 205.737 154.96 205.32 154.443C204.904 153.927 204.341 153.633 203.752 153.623H111.574C110.985 153.633 110.423 153.927 110.006 154.443C109.589 154.96 109.352 155.657 109.344 156.388V164.792C106.163 166.856 98.6694 172.569 98.6694 180.236C98.6771 180.966 98.9146 181.663 99.3311 182.18C99.7477 182.696 100.31 182.99 100.9 183H214.486C215.091 182.971 215.662 182.651 216.079 182.107C216.495 181.563 216.724 180.838 216.716 180.088C216.716 172.716 209.253 166.856 206.071 164.792H205.982Z" fill="white"/>
<path d="M157.366 78.9099H157.871C159.622 78.9217 161.321 79.6511 162.704 80.9844C164.086 82.3178 165.073 84.1802 165.513 86.2817H149.724C150.159 84.1771 151.145 82.3111 152.528 80.9768C153.911 79.6425 155.613 78.9154 157.366 78.9099V78.9099ZM168.04 91.6631C168.645 91.6343 169.217 91.3138 169.633 90.7698C170.05 90.2257 170.279 89.5014 170.27 88.7513C170.27 86.7329 169.95 84.7342 169.327 82.8694C168.704 81.0045 167.79 79.3101 166.639 77.8829C165.487 76.4556 164.12 75.3234 162.616 74.5509C161.112 73.7785 159.499 73.381 157.871 73.381H157.366C155.728 73.3858 154.108 73.7915 152.598 74.5749C151.087 75.3583 149.717 76.5038 148.564 77.9458C147.412 79.3877 146.501 81.0976 145.884 82.9772C145.266 84.8569 144.955 86.8692 144.966 88.8987C144.966 89.6319 145.201 90.335 145.619 90.8535C146.038 91.3719 146.605 91.6631 147.196 91.6631H168.04Z" fill="white"/>
<path d="M157.306 100.215H157.752C176.604 100.215 198.548 111.604 199.738 143.451H115.47C116.689 111.862 138.514 100.362 157.306 100.215ZM111.069 146.215C111.065 146.579 111.12 146.941 111.231 147.279C111.341 147.616 111.505 147.923 111.713 148.181C111.921 148.438 112.168 148.642 112.441 148.779C112.713 148.916 113.005 148.984 113.299 148.979H202.116C202.708 148.979 203.275 148.688 203.693 148.17C204.112 147.651 204.346 146.948 204.346 146.215C204.346 108.176 179.28 94.6121 157.842 94.6121H157.366C134.321 94.7964 111.069 110.83 111.069 146.215Z" fill="white"/>
<path d="M120.614 140.833H121.03C121.551 140.836 122.056 140.613 122.458 140.202C122.86 139.791 123.133 139.219 123.23 138.585C124.236 132.869 126.34 127.539 129.363 123.047C132.386 118.555 136.239 115.034 140.595 112.783C140.864 112.633 141.106 112.417 141.306 112.149C141.506 111.881 141.66 111.565 141.76 111.221C141.86 110.877 141.903 110.512 141.887 110.147C141.871 109.783 141.796 109.425 141.666 109.097C141.408 108.438 140.953 107.93 140.397 107.682C139.842 107.434 139.23 107.466 138.692 107.77C133.681 110.36 129.255 114.426 125.799 119.616C122.343 124.806 119.961 130.963 118.859 137.553C118.799 137.909 118.797 138.276 118.853 138.634C118.908 138.991 119.022 139.331 119.185 139.633C119.349 139.935 119.559 140.194 119.805 140.394C120.05 140.593 120.325 140.73 120.614 140.796V140.833Z" fill="white"/>
<path d="M197.299 164.018H117.819C117.227 164.018 116.66 164.309 116.242 164.827C115.824 165.346 115.589 166.049 115.589 166.782C115.589 167.515 115.824 168.218 116.242 168.737C116.66 169.255 117.227 169.547 117.819 169.547H197.299C197.891 169.547 198.458 169.255 198.876 168.737C199.294 168.218 199.529 167.515 199.529 166.782C199.529 166.049 199.294 165.346 198.876 164.827C198.458 164.309 197.891 164.018 197.299 164.018Z" fill="white"/>
</svg>
