<svg width="159" height="183" viewBox="0 0 159 183" fill="none" xmlns="http://www.w3.org/2000/svg">
<path d="M154.237 179.211H5.06996V23.1488C5.0782 18.0481 7.21525 13.1585 11.0127 9.55179C14.8102 5.94503 19.9583 3.91532 25.3287 3.90749H25.765C31.1354 3.91532 36.2836 5.94503 40.081 9.55179C43.8785 13.1585 46.0155 18.0481 46.0238 23.1488V37.7426H113.345V23.1488C113.353 18.0481 115.49 13.1585 119.288 9.55179C123.085 5.94503 128.233 3.91532 133.604 3.90749H134.04C139.411 3.91532 144.559 5.94503 148.356 9.55179C152.154 13.1585 154.291 18.0481 154.299 23.1488V179.181L154.237 179.211ZM133.978 0.029631H133.541C127.085 0.0374423 120.895 2.47479 116.327 6.80794C111.759 11.1411 109.185 17.0169 109.169 23.1488V33.8352H49.9508V23.1488C49.9508 17.0094 47.383 11.1214 42.8122 6.78016C38.2414 2.43892 32.0421 0 25.578 0H25.1417C18.7018 0.039054 12.5392 2.49426 7.9971 6.83044C3.455 11.1666 0.901648 17.0322 0.893555 23.1488V183H158.351V23.1488C158.351 17.0094 155.783 11.1214 151.212 6.78016C146.641 2.43892 140.442 0 133.978 0V0.029631Z" fill="white"/>
<path d="M14.7943 153.398H46.3979V166.689H14.7943V153.398ZM10.6802 170.597H50.512V149.461H10.6802V170.597Z" fill="white"/>
<path d="M113.283 153.398H144.886V166.689H113.283V153.398ZM109.169 170.597H149V149.461H109.169V170.597Z" fill="white"/>
<path d="M32.3102 37.9498H18.5654V21.8759C18.6829 20.2207 19.4579 18.6697 20.7338 17.5368C22.0097 16.4039 23.6912 15.7736 25.4378 15.7736C27.1845 15.7736 28.8659 16.4039 30.1418 17.5368C31.4177 18.6697 32.1928 20.2207 32.3102 21.8759V37.9498ZM36.4243 21.8759C36.0769 19.3615 34.7787 17.0529 32.7717 15.3804C30.7647 13.708 28.1857 12.7858 25.5157 12.7858C22.8457 12.7858 20.2668 13.708 18.2598 15.3804C16.2527 17.0529 14.9545 19.3615 14.6072 21.8759V41.8573H36.4243V21.8759Z" fill="white"/>
<path d="M140.554 37.9498H126.809V21.8759C126.927 20.2207 127.702 18.6697 128.978 17.5368C130.254 16.4039 131.935 15.7736 133.682 15.7736C135.428 15.7736 137.11 16.4039 138.386 17.5368C139.662 18.6697 140.437 20.2207 140.554 21.8759V37.9498ZM144.668 21.8759C144.321 19.3615 143.023 17.0529 141.016 15.3804C139.009 13.708 136.43 12.7858 133.76 12.7858C131.09 12.7858 128.511 13.708 126.504 15.3804C124.497 17.0529 123.198 19.3615 122.851 21.8759V41.8573H144.668V21.8759Z" fill="white"/>
<path d="M32.3102 84.8693H18.5654V68.7954C18.6829 67.1402 19.4579 65.5892 20.7338 64.4563C22.0097 63.3234 23.6912 62.6932 25.4378 62.6932C27.1845 62.6932 28.8659 63.3234 30.1418 64.4563C31.4177 65.5892 32.1928 67.1402 32.3102 68.7954V84.8693ZM36.4243 68.7954C36.0769 66.281 34.7787 63.9724 32.7717 62.3C30.7647 60.6275 28.1857 59.7053 25.5157 59.7053C22.8457 59.7053 20.2668 60.6275 18.2598 62.3C16.2527 63.9724 14.9545 66.281 14.6072 68.7954V88.7768H36.4243V68.7954Z" fill="white"/>
<path d="M68.4017 84.8689H54.6258V68.795C54.6258 67.0599 55.3515 65.3959 56.6432 64.1691C57.935 62.9422 59.687 62.253 61.5138 62.253C63.3406 62.253 65.0925 62.9422 66.3843 64.1691C67.676 65.3959 68.4017 67.0599 68.4017 68.795V84.8689ZM72.5158 68.795C72.5158 66.0236 71.3567 63.3657 69.2934 61.4061C67.2301 59.4464 64.4317 58.3455 61.5138 58.3455C58.5958 58.3455 55.7974 59.4464 53.7341 61.4061C51.6709 63.3657 50.5117 66.0236 50.5117 68.795V88.7764H72.5158V68.795Z" fill="white"/>
<path d="M104.494 84.8689H90.7176V68.795C90.7176 67.0599 91.4433 65.3959 92.735 64.1691C94.0268 62.9422 95.7788 62.253 97.6056 62.253C99.4324 62.253 101.184 62.9422 102.476 64.1691C103.768 65.3959 104.494 67.0599 104.494 68.795V84.8689ZM108.608 68.795C108.608 66.0236 107.448 63.3657 105.385 61.4061C103.322 59.4464 100.523 58.3455 97.6056 58.3455C94.6876 58.3455 91.8892 59.4464 89.8259 61.4061C87.7627 63.3657 86.6035 66.0236 86.6035 68.795V88.7764H108.608V68.795Z" fill="white"/>
<path d="M140.554 84.8693H126.809V68.7954C126.927 67.1402 127.702 65.5892 128.978 64.4563C130.254 63.3234 131.935 62.6932 133.682 62.6932C135.428 62.6932 137.11 63.3234 138.386 64.4563C139.662 65.5892 140.437 67.1402 140.554 68.7954V84.8693ZM144.668 68.7954C144.321 66.281 143.023 63.9724 141.016 62.3C139.009 60.6275 136.43 59.7053 133.76 59.7053C131.09 59.7053 128.511 60.6275 126.504 62.3C124.497 63.9724 123.198 66.281 122.851 68.7954V88.7768H144.668V68.7954Z" fill="white"/>
<path d="M18.5652 108.995C18.6826 107.34 19.4577 105.789 20.7336 104.656C22.0095 103.523 23.6909 102.893 25.4376 102.893C27.1842 102.893 28.8656 103.523 30.1415 104.656C31.4174 105.789 32.1925 107.34 32.3099 108.995V125.039H18.5652V108.995ZM14.4199 128.887H36.237V108.995C35.8897 106.48 34.5914 104.172 32.5844 102.499C30.5774 100.827 27.9985 99.9048 25.3285 99.9048C22.6585 99.9048 20.0796 100.827 18.0725 102.499C16.0655 104.172 14.7673 106.48 14.4199 108.995V128.947V128.887Z" fill="white"/>
<path d="M54.6258 108.995C54.6258 107.26 55.3515 105.596 56.6432 104.369C57.935 103.142 59.687 102.453 61.5138 102.453C63.3406 102.453 65.0925 103.142 66.3843 104.369C67.676 105.596 68.4017 107.26 68.4017 108.995V125.039H54.6258V108.995ZM50.5117 128.947H72.5158V108.995C72.5158 106.224 71.3567 103.566 69.2934 101.606C67.2301 99.6463 64.4317 98.5454 61.5138 98.5454C58.5958 98.5454 55.7974 99.6463 53.7341 101.606C51.6709 103.566 50.5117 106.224 50.5117 108.995V128.947Z" fill="white"/>
<path d="M90.7176 108.995C90.7176 107.26 91.4433 105.596 92.735 104.369C94.0268 103.142 95.7788 102.453 97.6056 102.453C99.4324 102.453 101.184 103.142 102.476 104.369C103.768 105.596 104.494 107.26 104.494 108.995V125.039H90.7176V108.995ZM86.6035 128.947H108.608V108.995C108.608 106.224 107.448 103.566 105.385 101.606C103.322 99.6463 100.523 98.5454 97.6056 98.5454C94.6876 98.5454 91.8892 99.6463 89.8259 101.606C87.7627 103.566 86.6035 106.224 86.6035 108.995V128.947Z" fill="white"/>
<path d="M126.809 108.995C126.927 107.34 127.702 105.789 128.978 104.656C130.254 103.523 131.935 102.893 133.682 102.893C135.428 102.893 137.11 103.523 138.386 104.656C139.662 105.789 140.437 107.34 140.554 108.995V125.039H126.809V108.995ZM122.695 128.947H144.512V108.995C144.165 106.48 142.867 104.172 140.86 102.499C138.853 100.827 136.274 99.9048 133.604 99.9048C130.934 99.9048 128.355 100.827 126.348 102.499C124.341 104.172 123.043 106.48 122.695 108.995V128.947Z" fill="white"/>
<path d="M60.3296 175.304H64.4437V152.007H78.2819V175.304H82.396V152.007H96.2343V175.304H100.348V148.099H60.3296V175.304Z" fill="white"/>
<path d="M9.12183 52.0404H150.123V48.1329H9.12183V52.0404Z" fill="white"/>
<path d="M105.086 22.468C105.125 21.1582 105.261 19.8525 105.491 18.5605H53.7534C53.984 19.8525 54.1193 21.1582 54.1586 22.468H105.086Z" fill="white"/>
<path d="M9.12183 143.215H150.123V139.307H9.12183V143.215Z" fill="white"/>
</svg>
